Land_normalized_Precision Landing04_filtered_grf
version=1
nRows=27
nColumns=37
inDegrees=yes
endheader
time		1_ground_force_vx		1_ground_force_vy		1_ground_force_vz		1_ground_force_px		1_ground_force_py		1_ground_force_pz		1_ground_torque_x		1_ground_torque_y		1_ground_torque_z		2_ground_force_vx		2_ground_force_vy		2_ground_force_vz		2_ground_force_px		2_ground_force_py		2_ground_force_pz		2_ground_torque_x		2_ground_torque_y		2_ground_torque_z		3_ground_force_vx		3_ground_force_vy		3_ground_force_vz		3_ground_force_px		3_ground_force_py		3_ground_force_pz		3_ground_torque_x		3_ground_torque_y		3_ground_torque_z		4_ground_force_vx		4_ground_force_vy		4_ground_force_vz		4_ground_force_px		4_ground_force_py		4_ground_force_pz		4_ground_torque_x		4_ground_torque_y		4_ground_torque_z		
0.962000		10.320623		24.503484		-40.460807		0.128987		0.000000		0.585277		-0.273726		-0.649887		1.073110		-5.227871		16.413382		-32.998862		-0.185920		0.000000		0.773995		0.293954		-0.922897		1.855470		1.539361		-0.885056		-1.041450		0.352058		1.256323		1.893131		-0.010991		-0.010688		0.015667		-4.188057		0.641879		2.677128		-0.289021		1.265057		1.901789		-0.041277		0.151016		-0.002094		
0.965182		10.534668		63.863917		25.664857		0.093128		0.000000		0.233045		0.326906		1.954537		0.756985		6.190814		100.641283		4.596429		-0.129987		0.000000		0.378638		0.074602		1.140542		0.074988		1.494274		-1.028847		-1.095801		0.352029		1.256351		1.893180		-0.010618		-0.007202		0.018269		-4.177852		0.670713		2.437427		-0.289053		1.265048		1.901806		-0.039036		0.153949		-0.002364		
0.968364		3.820403		129.899648		141.809152		0.103229		0.000000		0.117697		-0.047847		-1.671057		-1.828970		27.489838		220.321044		78.908603		-0.156659		0.000000		0.327044		1.501254		12.023533		4.311173		1.475943		-1.121863		-1.139895		0.352014		1.256378		1.893221		-0.010478		-0.006409		0.019784		-4.170027		0.690443		2.197608		-0.289097		1.265042		1.901809		-0.036743		0.158982		-0.002710		
0.971545		-11.967948		235.529255		294.156499		0.119890		0.000000		0.109293		0.255923		-5.036226		-6.289818		58.095617		363.558298		185.370139		-0.175580		0.000000		0.303717		3.998673		25.022284		12.759007		1.476052		-1.146682		-1.171729		0.352013		1.256398		1.893248		-0.010405		-0.008389		0.020630		-4.160424		0.705973		2.038352		-0.289141		1.265042		1.901802		-0.034884		0.164783		-0.003271		
0.974727		-36.385320		400.398615		450.060900		0.126647		0.000000		0.149554		0.660293		-7.270591		-8.176074		94.469758		516.621150		305.979561		-0.186307		0.000000		0.292026		7.040896		38.503212		22.804825		1.480866		-1.106308		-1.188391		0.352025		1.256412		1.893259		-0.009933		-0.012196		0.021398		-4.152944		0.723926		2.009331		-0.289172		1.265044		1.901784		-0.033686		0.169572		-0.004248		
0.977909		-65.391808		648.010678		566.621058		0.128774		0.000000		0.206925		0.525719		-5.209631		-4.562991		130.303694		674.696105		412.278048		-0.188944		0.000000		0.290786		9.812118		50.805967		31.045404		1.481153		-1.021039		-1.186299		0.352047		1.256416		1.893254		-0.008638		-0.016338		0.022433		-4.157757		0.746548		2.111854		-0.289184		1.265047		1.901759		-0.033212		0.171822		-0.005703		
0.981091		-91.978087		995.902414		605.461545		0.132335		0.000000		0.261985		-0.506912		5.496669		3.329036		157.266033		847.873030		473.192794		-0.182860		0.000000		0.300939		11.119122		59.944168		33.456892		1.472005		-0.917353		-1.162474		0.352072		1.256414		1.893235		-0.006457		-0.019416		0.023622		-4.184217		0.767548		2.307122		-0.289173		1.265047		1.901728		-0.033458		0.170879		-0.007406		
0.984273		-108.116677		1433.493282		548.651955		0.139777		0.000000		0.306113		-1.854549		24.609002		9.402778		166.495706		1053.695038		464.914612		-0.170342		0.000000		0.320772		9.812740		62.078862		27.404556		1.450361		-0.819957		-1.117569		0.352095		1.256408		1.893206		-0.003748		-0.020509		0.024537		-4.232904		0.775248		2.531048		-0.289146		1.265042		1.901692		-0.034342		0.167227		-0.008911		
0.987455		-108.285722		1905.322866		409.513260		0.148567		0.000000		0.337911		-2.571071		45.244170		9.721998		152.319270		1299.030839		380.285190		-0.157819		0.000000		0.345399		6.149869		52.428511		15.356235		1.419287		-0.749598		-1.058033		0.352111		1.256402		1.893172		-0.001089		-0.019354		0.024765		-4.292014		0.760674		2.716588		-0.289111		1.265034		1.901654		-0.035665		0.162171		-0.009851		
0.990636		-92.821945		2314.161150		232.377681		0.155551		0.000000		0.358491		-2.431123		60.615614		6.085595		116.353481		1564.487433		233.186684		-0.150959		0.000000		0.369448		2.320004		31.114645		4.657084		1.394718		-0.723441		-0.994355		0.352120		1.256393		1.893129		0.000971		-0.016238		0.024198		-4.340829		0.725721		2.813834		-0.289075		1.265022		1.901610		-0.037023		0.157211		-0.010121		
0.993818		-69.491873		2552.767447		81.366563		0.159470		0.000000		0.369438		-1.865297		68.523320		2.183846		69.787638		1801.232748		59.791412		-0.149588		0.000000		0.388794		0.223366		5.652148		0.201939		1.401707		-0.747908		-0.936235		0.352125		1.256382		1.893080		0.002046		-0.011922		0.023118		-4.357138		0.687161		2.808584		-0.289045		1.265010		1.901566		-0.037753		0.153459		-0.009864		
0.997000		-49.709907		2555.080092		14.909537		0.160110		0.000000		0.371755		-1.352749		69.531041		0.405731		29.688139		1949.036658		-91.061326		-0.150196		0.000000		0.400985		-0.236886		-15.551636		0.726591		1.458893		-0.810038		-0.889243		0.352129		1.256367		1.893023		0.001949		-0.007435		0.021860		-4.324523		0.668502		2.726610		-0.289023		1.264999		1.901518		-0.037083		0.151347		-0.009242		
1.000182		-42.166802		2331.184986		60.933048		0.157126		0.000000		0.365223		-1.159575		64.107036		1.675608		12.353315		1964.805223		-172.125936		-0.149851		0.000000		0.404704		-0.170774		-27.166433		2.380611		1.564752		-0.876248		-0.854448		0.352139		1.256350		1.892957		0.000704		-0.003869		0.020456		-4.236238		0.685549		2.624431		-0.289009		1.264992		1.901467		-0.034492		0.150642		-0.008296		
1.003364		-47.326945		1966.054667		199.052685		0.149707		0.000000		0.347956		-1.253301		52.073516		5.269828		24.948634		1850.455403		-157.973668		-0.147142		0.000000		0.399167		-0.357762		-26.559805		2.267944		1.692630		-0.907629		-0.829175		0.352156		1.256329		1.892886		-0.001447		-0.002059		0.018603		-4.098779		0.734342		2.566479		-0.288998		1.264988		1.901412		-0.030186		0.150608		-0.007038		
1.006545		-58.287213		1568.653808		373.738043		0.137356		0.000000		0.316334		-1.255340		33.795494		8.047535		62.448906		1647.690562		-54.257366		-0.142244		0.000000		0.383749		-0.471423		-12.474413		0.414136		1.802166		-0.885586		-0.807991		0.352183		1.256310		1.892815		-0.004144		-0.002241		0.016005		-3.931267		0.792409		2.597380		-0.288987		1.264988		1.901351		-0.025196		0.150435		-0.005670		
1.009727		-66.390003		1232.051914		521.082867		0.122492		0.000000		0.268545		-0.718940		13.370676		5.636603		110.123326		1416.431760		104.031854		-0.138149		0.000000		0.359529		1.056346		13.472373		1.015223		1.854951		-0.828298		-0.780636		0.352216		1.256292		1.892747		-0.006941		-0.003831		0.012934		-3.765347		0.828094		2.725853		-0.288973		1.264989		1.901283		-0.021130		0.149616		-0.004666		
1.012909		-67.050260		1006.763128		599.514908		0.108967		0.000000		0.212818		0.046696		-0.696891		-0.419799		150.703609		1208.052223		267.549442		-0.140597		0.000000		0.331117		5.363225		42.945783		9.531059		1.829787		-0.783708		-0.731634		0.352251		1.256279		1.892686		-0.009358		-0.005625		0.010373		-3.636220		0.816732		2.921628		-0.288956		1.264992		1.901208		-0.019457		0.148118		-0.004519		
1.016091		-60.992306		899.894446		603.480173		0.097142		0.000000		0.171332		0.238926		-3.524296		-2.363385		171.283100		1051.970042		392.877323		-0.150756		0.000000		0.305208		10.419588		63.981523		23.905542		1.727981		-0.796935		-0.645019		0.352283		1.256273		1.892632		-0.010998		-0.006355		0.009356		-3.569102		0.755277		3.128083		-0.288936		1.264996		1.901132		-0.020858		0.146254		-0.005455		
1.019273		-51.948987		886.294671		557.833167		0.089338		0.000000		0.163287		-0.186629		3.196040		2.006820		167.266977		956.243975		456.275303		-0.160028		0.000000		0.287814		12.710477		72.665317		34.676118		1.574163		-0.873847		-0.516044		0.352307		1.256269		1.892581		-0.011690		-0.005284		0.010001		-3.567164		0.670988		3.280920		-0.288916		1.265003		1.901057		-0.024906		0.144408		-0.007301		
1.022455		-43.170630		926.372730		497.633095		0.090465		0.000000		0.184127		-0.629094		13.503875		7.252357		143.339254		913.915926		458.078927		-0.160839		0.000000		0.282280		11.446410		72.980945		36.579996		1.408361		-0.971885		-0.360402		0.352322		1.256270		1.892530		-0.011537		-0.002550		0.011196		-3.606546		0.612586		3.333884		-0.288898		1.265011		1.900989		-0.030225		0.142661		-0.009580		
1.025636		-35.977037		981.646423		449.199330		0.098999		0.000000		0.215395		-0.741793		20.242813		9.262331		110.985850		910.194899		416.450865		-0.154534		0.000000		0.287288		8.343905		68.418042		31.306291		1.272955		-1.031090		-0.210473		0.352326		1.256271		1.892477		-0.010795		0.001037		0.011309		-3.642526		0.623092		3.275457		-0.288884		1.265019		1.900930		-0.034960		0.140620		-0.011694		
1.028818		-30.225640		1024.063529		422.013581		0.108391		0.000000		0.241946		-0.631059		21.378972		8.810461		83.612012		926.366684		358.145463		-0.147373		0.000000		0.297498		5.535961		61.320786		23.710991		1.198339		-1.021532		-0.101745		0.352322		1.256273		1.892424		-0.009722		0.004451		0.009417		-3.631782		0.708000		3.134202		-0.288874		1.265026		1.900878		-0.037452		0.137707		-0.013110		
1.032000		-25.538279		1040.494942		412.148682		0.114158		0.000000		0.256792		-0.481652		19.623718		7.773118		70.001840		945.030425		306.783711		-0.143467		0.000000		0.307245		4.041795		54.564551		17.713203		1.192746		-0.964788		-0.058266		0.352313		1.256272		1.892374		-0.008490		0.006895		0.006042		-3.563313		0.827559		2.964082		-0.288867		1.265029		1.900831		-0.036989		0.133800		-0.013540		
1.035182		-22.059782		1030.780066		410.462476		0.115185		0.000000		0.258822		-0.373881		17.469220		6.956271		70.693552		953.503298		275.971184		-0.142864		0.000000		0.312997		3.748461		50.559746		14.633702		1.243446		-0.912345		-0.087800		0.352300		1.256269		1.892329		-0.007233		0.007987		0.002714		-3.471336		0.917427		2.825956		-0.288862		1.265027		1.900786		-0.034039		0.129614		-0.013059		
1.038364		-20.433366		1003.945236		408.418212		0.112699		0.000000		0.251071		-0.313205		15.388599		6.260216		78.522022		946.120161		266.387677		-0.143657		0.000000		0.313981		4.123012		49.677980		13.987245		1.325335		-0.901067		-0.182262		0.352287		1.256260		1.892292		-0.006097		0.007804		0.000666		-3.418665		0.927294		2.767834		-0.288858		1.265019		1.900744		-0.029925		0.126538		-0.012057		
1.041545		-21.283228		971.681467		400.591944		0.108759		0.000000		0.238681		-0.289314		13.209077		5.445661		84.235974		923.537078		269.343434		-0.144050		0.000000		0.311144		4.613332		50.578861		14.751071		1.413297		-0.926822		-0.322465		0.352274		1.256246		1.892263		-0.005208		0.006774		-0.000126		-3.455975		0.850637		2.812903		-0.288854		1.265006		1.900704		-0.025979		0.125842		-0.010912		
1.044727		-24.477067		944.056599		384.807877		0.105274		0.000000		0.227367		-0.295387		11.394013		4.644397		81.918188		890.715329		272.680730		-0.142811		0.000000		0.306185		4.721794		51.341737		15.717759		1.485052		-0.959248		-0.477813		0.352266		1.256227		1.892237		-0.004607		0.005748		-0.000752		-3.587354		0.729305		2.954931		-0.288849		1.264992		1.900670		-0.023002		0.127722		-0.009700		
